<svg width="110" height="110" viewBox="0 0 110 110" fill="none" xmlns="http://www.w3.org/2000/svg">
<path d="M42.9066 5.61934C47.4523 -0.965326 57.0275 -1.39218 62.141 4.76188L65.0904 8.31147C67.8806 11.6693 72.2652 13.2607 76.5596 12.474L81.0991 11.6424C88.9694 10.2005 96.0419 16.6694 95.3062 24.6368L94.8818 29.2323C94.4803 33.5796 96.4555 37.8053 100.048 40.2855L103.846 42.9074C110.431 47.453 110.858 57.0283 104.704 62.1418L101.154 65.0912C97.7963 67.8813 96.2049 72.266 96.9916 76.5603L97.8233 81.0999C99.2651 88.9702 92.7962 96.0427 84.8288 95.3069L80.2333 94.8826C75.886 94.4811 71.6603 96.4563 69.1801 100.049L66.5582 103.847C62.0126 110.432 52.4373 110.859 47.3238 104.705L44.3744 101.155C41.5843 97.7971 37.1996 96.2057 32.9053 96.9924L28.3658 97.824C20.4955 99.2659 13.4229 92.797 14.1587 84.8296L14.5831 80.2341C14.9845 75.8868 13.0093 71.6611 9.41652 69.1809L5.61855 66.559C-0.96611 62.0134 -1.39296 52.4381 4.7611 47.3246L8.31069 44.3752C11.6686 41.5851 13.2599 37.2004 12.4732 32.9061L11.6416 28.3666C10.1998 20.4962 16.6686 13.4237 24.636 14.1595L29.2315 14.5839C33.5788 14.9853 37.8045 13.0101 40.2848 9.4173L42.9066 5.61934Z" fill="#B7E0C2"/>
</svg>
